<?xml version="1.0" encoding="UTF-8" standalone="no"?>
<!-- Created with Inkscape (http://www.inkscape.org/) -->

<svg
   width="210mm"
   height="297mm"
   viewBox="0 0 210 297"
   version="1.1"
   id="svg1"
   inkscape:version="1.3 (0e150ed6c4, 2023-07-21)"
   sodipodi:docname="Logo HiHive.svg"
   inkscape:export-filename="Logo HiHive exportado.svg"
   inkscape:export-xdpi="96"
   inkscape:export-ydpi="96"
   xml:space="preserve"
   xmlns:inkscape="http://www.inkscape.org/namespaces/inkscape"
   xmlns:sodipodi="http://sodipodi.sourceforge.net/DTD/sodipodi-0.dtd"
   xmlns="http://www.w3.org/2000/svg"
   xmlns:svg="http://www.w3.org/2000/svg"><sodipodi:namedview
     id="namedview1"
     pagecolor="#ffffff"
     bordercolor="#000000"
     borderopacity="0.25"
     inkscape:showpageshadow="2"
     inkscape:pageopacity="0.0"
     inkscape:pagecheckerboard="0"
     inkscape:deskcolor="#d1d1d1"
     inkscape:document-units="mm"
     inkscape:zoom="1.0128998"
     inkscape:cx="228.0581"
     inkscape:cy="448.71171"
     inkscape:window-width="3440"
     inkscape:window-height="1351"
     inkscape:window-x="-9"
     inkscape:window-y="-9"
     inkscape:window-maximized="1"
     inkscape:current-layer="layer1" /><defs
     id="defs1"><rect
       x="243.85432"
       y="333.6954"
       width="273.47226"
       height="117.48447"
       id="rect522" /><rect
       x="243.85432"
       y="333.6954"
       width="562.24713"
       height="170.30312"
       id="rect524" /><rect
       x="243.85432"
       y="333.6954"
       width="130.31891"
       height="96.751915"
       id="rect526" /></defs><g
     inkscape:label="Capa 1"
     inkscape:groupmode="layer"
     id="layer1"><path
       sodipodi:type="star"
       style="fill:#ffcb62;fill-opacity:1;stroke:#100e0e;stroke-width:0;stroke-linecap:round;stroke-dasharray:none;paint-order:markers stroke fill"
       id="path500"
       inkscape:flatsided="true"
       sodipodi:sides="6"
       sodipodi:cx="66.348282"
       sodipodi:cy="76.535622"
       sodipodi:r1="51.066101"
       sodipodi:r2="50.842651"
       sodipodi:arg1="-0.0059543593"
       sodipodi:arg2="0.51764434"
       inkscape:rounded="0.68636006"
       inkscape:randomized="0"
       d="m 117.41348,76.231558 c 0.2087,35.049112 4.9798,26.670492 -25.269273,44.375792 C 61.895135,138.31264 71.53678,138.25523 41.079011,120.91141 10.621242,103.56759 15.491784,111.8888 15.283086,76.839686 15.074389,41.790575 10.303285,50.16919 40.552357,32.463897 70.801428,14.758604 61.159783,14.816015 91.617553,32.159833 122.07532,49.503651 117.20478,41.182447 117.41348,76.231558 Z"
       transform="matrix(0.74636366,0,0,0.74636366,49.610906,88.02221)" /><path
       sodipodi:type="star"
       style="fill:#4e4e4e;fill-opacity:1;stroke:#100e0e;stroke-width:0;stroke-linecap:round;paint-order:markers stroke fill"
       id="path501"
       inkscape:flatsided="true"
       sodipodi:sides="6"
       sodipodi:cx="66.348282"
       sodipodi:cy="76.535622"
       sodipodi:r1="51.066101"
       sodipodi:r2="50.842651"
       sodipodi:arg1="-0.0059543593"
       sodipodi:arg2="0.51764434"
       inkscape:rounded="0.68636006"
       inkscape:randomized="0"
       d="m 117.41348,76.231558 c 0.2087,35.049112 4.9798,26.670492 -25.269273,44.375792 C 61.895135,138.31264 71.53678,138.25523 41.079011,120.91141 10.621242,103.56759 15.491784,111.8888 15.283086,76.839686 15.074389,41.790575 10.303285,50.16919 40.552357,32.463897 70.801428,14.758604 61.159783,14.816015 91.617553,32.159833 122.07532,49.503651 117.20478,41.182447 117.41348,76.231558 Z"
       transform="matrix(0.74636366,0,0,0.74636366,55.292798,91.029555)" /><path
       sodipodi:type="star"
       style="fill:#000000;fill-opacity:1;stroke:#100e0e;stroke-width:0;stroke-linecap:round;stroke-dasharray:none;paint-order:markers stroke fill"
       id="path502"
       inkscape:flatsided="true"
       sodipodi:sides="6"
       sodipodi:cx="66.348282"
       sodipodi:cy="76.535622"
       sodipodi:r1="51.066101"
       sodipodi:r2="50.842651"
       sodipodi:arg1="-0.0059543593"
       sodipodi:arg2="0.51764434"
       inkscape:rounded="0.68636006"
       inkscape:randomized="0"
       d="m 117.41348,76.231558 c 0.2087,35.049112 4.9798,26.670492 -25.269273,44.375792 C 61.895135,138.31264 71.53678,138.25523 41.079011,120.91141 10.621242,103.56759 15.491784,111.8888 15.283086,76.839686 15.074389,41.790575 10.303285,50.16919 40.552357,32.463897 70.801428,14.758604 61.159783,14.816015 91.617553,32.159833 122.07532,49.503651 117.20478,41.182447 117.41348,76.231558 Z"
       transform="matrix(0.74636366,0,0,0.74636366,61.349209,94.730981)" /><text
       xml:space="preserve"
       transform="matrix(0.26470456,0,0,0.26470456,9.7096219,52.646199)"
       id="text503"
       style="font-weight:bold;font-size:96px;line-height:1.1;font-family:Arial;-inkscape-font-specification:'Arial Bold';text-align:center;letter-spacing:4.88949px;word-spacing:0px;white-space:pre;shape-inside:url(#rect522);display:inline;fill:#ffcb62;fill-opacity:1;stroke:#100e0e;stroke-width:0.437871;stroke-linecap:round;stroke-dasharray:none;paint-order:markers stroke fill"><tspan
         x="274.51342"
         y="417.09739"
         id="tspan2"><tspan
           style="font-weight:normal;font-family:'Berlin Sans FB Demi';-inkscape-font-specification:'Berlin Sans FB Demi'"
           id="tspan1">Hive</tspan></tspan></text><text
       xml:space="preserve"
       transform="matrix(0.20357605,0,0,0.20357605,4.0559381,98.484765)"
       id="text507"
       style="font-weight:bold;font-size:48px;line-height:1.1;font-family:Arial;-inkscape-font-specification:'Arial Bold';text-align:center;letter-spacing:5px;word-spacing:0px;white-space:pre;shape-inside:url(#rect524);display:inline;fill:#9a9a9a;fill-opacity:1;stroke:#100e0e;stroke-width:0.666233;stroke-linecap:round;stroke-dasharray:none;paint-order:markers stroke fill"><tspan
         x="397.28223"
         y="375.22459"
         id="tspan4"><tspan
           style="font-weight:normal;font-family:'Berlin Sans FB';-inkscape-font-specification:'Berlin Sans FB'"
           id="tspan3">Coworking</tspan></tspan></text><path
       sodipodi:type="star"
       style="fill:#8f8f8f;fill-opacity:1;stroke:#100e0e;stroke-width:0;stroke-linecap:round;stroke-dasharray:none;paint-order:markers stroke fill"
       id="path507"
       inkscape:flatsided="true"
       sodipodi:sides="6"
       sodipodi:cx="66.348282"
       sodipodi:cy="76.535622"
       sodipodi:r1="51.066101"
       sodipodi:r2="50.842651"
       sodipodi:arg1="-0.0059543593"
       sodipodi:arg2="0.51764434"
       inkscape:rounded="0.68636006"
       inkscape:randomized="0"
       d="m 117.41348,76.231558 c 0.2087,35.049112 4.9798,26.670492 -25.269273,44.375792 C 61.895135,138.31264 71.53678,138.25523 41.079011,120.91141 10.621242,103.56759 15.491784,111.8888 15.283086,76.839686 15.074389,41.790575 10.303285,50.16919 40.552357,32.463897 70.801428,14.758604 61.159783,14.816015 91.617553,32.159833 122.07532,49.503651 117.20478,41.182447 117.41348,76.231558 Z"
       transform="matrix(0.16739245,0,0,0.16739245,111.84628,120.12576)" /><text
       xml:space="preserve"
       transform="matrix(0.25209977,0,0,0.25209977,22.347175,37.460416)"
       id="text508"
       style="font-weight:bold;font-size:85.3333px;line-height:1.1;font-family:Arial;-inkscape-font-specification:'Arial Bold';text-align:center;letter-spacing:0px;word-spacing:0px;white-space:pre;shape-inside:url(#rect526);display:inline;fill:#8f8f8f;fill-opacity:1;stroke:#100e0e;stroke-width:0.572926;stroke-linecap:round;stroke-dasharray:none;paint-order:markers stroke fill"><tspan
         x="265.49286"
         y="407.83046"
         id="tspan6"><tspan
           style="font-weight:normal;font-family:'Berlin Sans FB Demi';-inkscape-font-specification:'Berlin Sans FB Demi'"
           id="tspan5">Hi</tspan></tspan></text></g></svg>
